<svg xmlns="http://www.w3.org/2000/svg" width="980" height="520" viewBox="0 0 980 520">
<rect width="100%" height="100%" fill="#07110d"/>
<text x="78" y="36" fill="#e7fff3" font-family="Arial, sans-serif" font-size="22" font-weight="700">Recent Completed: Hit Rate</text>
<text x="78" y="58" fill="#8fb9a2" font-family="Arial, sans-serif" font-size="13">Share of names with positive sector-neutral return after estimated trading cost</text>
<line x1="78" y1="438.00" x2="954" y2="438.00" stroke="#6fbf90" stroke-opacity="0.55" stroke-width="1"/>
<line x1="78" y1="70" x2="78" y2="438" stroke="#254235"/>
<line x1="78" y1="438" x2="954" y2="438" stroke="#254235"/>
<rect x="78.00" y="133.36" width="76.80" height="304.64" rx="4" fill="#45e38a" fill-opacity="0.86"/>
<text x="116.40" y="472" text-anchor="middle" fill="#cce9d8" font-family="Arial, sans-serif" font-size="13">D1</text>
<text x="116.40" y="126.36" text-anchor="middle" fill="#e7fff3" font-family="Arial, sans-serif" font-size="12">47.32%</text>
<rect x="166.80" y="171.26" width="76.80" height="266.74" rx="4" fill="#45e38a" fill-opacity="0.86"/>
<text x="205.20" y="472" text-anchor="middle" fill="#cce9d8" font-family="Arial, sans-serif" font-size="13">D2</text>
<text x="205.20" y="164.26" text-anchor="middle" fill="#e7fff3" font-family="Arial, sans-serif" font-size="12">41.43%</text>
<rect x="255.60" y="146.80" width="76.80" height="291.20" rx="4" fill="#45e38a" fill-opacity="0.86"/>
<text x="294.00" y="472" text-anchor="middle" fill="#cce9d8" font-family="Arial, sans-serif" font-size="13">D3</text>
<text x="294.00" y="139.80" text-anchor="middle" fill="#e7fff3" font-family="Arial, sans-serif" font-size="12">45.23%</text>
<rect x="344.40" y="148.51" width="76.80" height="289.49" rx="4" fill="#45e38a" fill-opacity="0.86"/>
<text x="382.80" y="472" text-anchor="middle" fill="#cce9d8" font-family="Arial, sans-serif" font-size="13">D4</text>
<text x="382.80" y="141.51" text-anchor="middle" fill="#e7fff3" font-family="Arial, sans-serif" font-size="12">44.97%</text>
<rect x="433.20" y="152.37" width="76.80" height="285.63" rx="4" fill="#45e38a" fill-opacity="0.86"/>
<text x="471.60" y="472" text-anchor="middle" fill="#cce9d8" font-family="Arial, sans-serif" font-size="13">D5</text>
<text x="471.60" y="145.37" text-anchor="middle" fill="#e7fff3" font-family="Arial, sans-serif" font-size="12">44.37%</text>
<rect x="522.00" y="114.18" width="76.80" height="323.82" rx="4" fill="#45e38a" fill-opacity="0.86"/>
<text x="560.40" y="472" text-anchor="middle" fill="#cce9d8" font-family="Arial, sans-serif" font-size="13">D6</text>
<text x="560.40" y="107.18" text-anchor="middle" fill="#e7fff3" font-family="Arial, sans-serif" font-size="12">50.30%</text>
<rect x="610.80" y="144.43" width="76.80" height="293.57" rx="4" fill="#45e38a" fill-opacity="0.86"/>
<text x="649.20" y="472" text-anchor="middle" fill="#cce9d8" font-family="Arial, sans-serif" font-size="13">D7</text>
<text x="649.20" y="137.43" text-anchor="middle" fill="#e7fff3" font-family="Arial, sans-serif" font-size="12">45.60%</text>
<rect x="699.60" y="162.89" width="76.80" height="275.11" rx="4" fill="#45e38a" fill-opacity="0.86"/>
<text x="738.00" y="472" text-anchor="middle" fill="#cce9d8" font-family="Arial, sans-serif" font-size="13">D8</text>
<text x="738.00" y="155.89" text-anchor="middle" fill="#e7fff3" font-family="Arial, sans-serif" font-size="12">42.73%</text>
<rect x="788.40" y="161.82" width="76.80" height="276.18" rx="4" fill="#45e38a" fill-opacity="0.86"/>
<text x="826.80" y="472" text-anchor="middle" fill="#cce9d8" font-family="Arial, sans-serif" font-size="13">D9</text>
<text x="826.80" y="154.82" text-anchor="middle" fill="#e7fff3" font-family="Arial, sans-serif" font-size="12">42.90%</text>
<rect x="877.20" y="70.00" width="76.80" height="368.00" rx="4" fill="#45e38a" fill-opacity="0.86"/>
<text x="915.60" y="472" text-anchor="middle" fill="#cce9d8" font-family="Arial, sans-serif" font-size="13">D10</text>
<text x="915.60" y="63.00" text-anchor="middle" fill="#e7fff3" font-family="Arial, sans-serif" font-size="12">57.16%</text>
</svg>
