<svg xmlns="http://www.w3.org/2000/svg" width="980" height="520" viewBox="0 0 980 520">
<rect width="100%" height="100%" fill="#07110d"/>
<text x="78" y="36" fill="#e7fff3" font-family="Arial, sans-serif" font-size="22" font-weight="700">Recent Completed: Median Decile Returns</text>
<text x="78" y="58" fill="#8fb9a2" font-family="Arial, sans-serif" font-size="13">Average daily median realized 14D sector-neutral return after estimated trading cost</text>
<line x1="78" y1="266.64" x2="954" y2="266.64" stroke="#6fbf90" stroke-opacity="0.55" stroke-width="1"/>
<line x1="78" y1="70" x2="78" y2="438" stroke="#254235"/>
<line x1="78" y1="438" x2="954" y2="438" stroke="#254235"/>
<rect x="78.00" y="266.64" width="76.80" height="33.01" rx="4" fill="#ff647c" fill-opacity="0.86"/>
<text x="116.40" y="472" text-anchor="middle" fill="#cce9d8" font-family="Arial, sans-serif" font-size="13">D1</text>
<text x="116.40" y="317.65" text-anchor="middle" fill="#e7fff3" font-family="Arial, sans-serif" font-size="12">-0.33%</text>
<rect x="166.80" y="266.64" width="76.80" height="73.52" rx="4" fill="#ff647c" fill-opacity="0.86"/>
<text x="205.20" y="472" text-anchor="middle" fill="#cce9d8" font-family="Arial, sans-serif" font-size="13">D2</text>
<text x="205.20" y="358.16" text-anchor="middle" fill="#e7fff3" font-family="Arial, sans-serif" font-size="12">-0.73%</text>
<rect x="255.60" y="266.64" width="76.80" height="59.98" rx="4" fill="#ff647c" fill-opacity="0.86"/>
<text x="294.00" y="472" text-anchor="middle" fill="#cce9d8" font-family="Arial, sans-serif" font-size="13">D3</text>
<text x="294.00" y="344.62" text-anchor="middle" fill="#e7fff3" font-family="Arial, sans-serif" font-size="12">-0.60%</text>
<rect x="344.40" y="266.64" width="76.80" height="51.58" rx="4" fill="#ff647c" fill-opacity="0.86"/>
<text x="382.80" y="472" text-anchor="middle" fill="#cce9d8" font-family="Arial, sans-serif" font-size="13">D4</text>
<text x="382.80" y="336.21" text-anchor="middle" fill="#e7fff3" font-family="Arial, sans-serif" font-size="12">-0.51%</text>
<rect x="433.20" y="266.64" width="76.80" height="75.46" rx="4" fill="#ff647c" fill-opacity="0.86"/>
<text x="471.60" y="472" text-anchor="middle" fill="#cce9d8" font-family="Arial, sans-serif" font-size="13">D5</text>
<text x="471.60" y="360.10" text-anchor="middle" fill="#e7fff3" font-family="Arial, sans-serif" font-size="12">-0.75%</text>
<rect x="522.00" y="266.64" width="76.80" height="5.05" rx="4" fill="#ff647c" fill-opacity="0.86"/>
<text x="560.40" y="472" text-anchor="middle" fill="#cce9d8" font-family="Arial, sans-serif" font-size="13">D6</text>
<text x="560.40" y="289.69" text-anchor="middle" fill="#e7fff3" font-family="Arial, sans-serif" font-size="12">-0.05%</text>
<rect x="610.80" y="266.64" width="76.80" height="77.08" rx="4" fill="#ff647c" fill-opacity="0.86"/>
<text x="649.20" y="472" text-anchor="middle" fill="#cce9d8" font-family="Arial, sans-serif" font-size="13">D7</text>
<text x="649.20" y="361.72" text-anchor="middle" fill="#e7fff3" font-family="Arial, sans-serif" font-size="12">-0.76%</text>
<rect x="699.60" y="266.64" width="76.80" height="171.36" rx="4" fill="#ff647c" fill-opacity="0.86"/>
<text x="738.00" y="472" text-anchor="middle" fill="#cce9d8" font-family="Arial, sans-serif" font-size="13">D8</text>
<text x="738.00" y="456.00" text-anchor="middle" fill="#e7fff3" font-family="Arial, sans-serif" font-size="12">-1.70%</text>
<rect x="788.40" y="266.64" width="76.80" height="137.83" rx="4" fill="#ff647c" fill-opacity="0.86"/>
<text x="826.80" y="472" text-anchor="middle" fill="#cce9d8" font-family="Arial, sans-serif" font-size="13">D9</text>
<text x="826.80" y="422.46" text-anchor="middle" fill="#e7fff3" font-family="Arial, sans-serif" font-size="12">-1.37%</text>
<rect x="877.20" y="70.00" width="76.80" height="196.64" rx="4" fill="#45e38a" fill-opacity="0.86"/>
<text x="915.60" y="472" text-anchor="middle" fill="#cce9d8" font-family="Arial, sans-serif" font-size="13">D10</text>
<text x="915.60" y="63.00" text-anchor="middle" fill="#e7fff3" font-family="Arial, sans-serif" font-size="12">1.95%</text>
</svg>
