<svg xmlns="http://www.w3.org/2000/svg" width="980" height="520" viewBox="0 0 980 520">
<rect width="100%" height="100%" fill="#07110d"/>
<text x="78" y="36" fill="#e7fff3" font-family="Arial, sans-serif" font-size="22" font-weight="700">Strict Post-Training: Hit Rate</text>
<text x="78" y="58" fill="#8fb9a2" font-family="Arial, sans-serif" font-size="13">Share of names with positive sector-neutral return after estimated trading cost</text>
<line x1="78" y1="438.00" x2="954" y2="438.00" stroke="#6fbf90" stroke-opacity="0.55" stroke-width="1"/>
<line x1="78" y1="70" x2="78" y2="438" stroke="#254235"/>
<line x1="78" y1="438" x2="954" y2="438" stroke="#254235"/>
<rect x="78.00" y="171.25" width="76.80" height="266.75" rx="4" fill="#45e38a" fill-opacity="0.86"/>
<text x="116.40" y="472" text-anchor="middle" fill="#cce9d8" font-family="Arial, sans-serif" font-size="13">D1</text>
<text x="116.40" y="164.25" text-anchor="middle" fill="#e7fff3" font-family="Arial, sans-serif" font-size="12">38.38%</text>
<rect x="166.80" y="173.86" width="76.80" height="264.14" rx="4" fill="#45e38a" fill-opacity="0.86"/>
<text x="205.20" y="472" text-anchor="middle" fill="#cce9d8" font-family="Arial, sans-serif" font-size="13">D2</text>
<text x="205.20" y="166.86" text-anchor="middle" fill="#e7fff3" font-family="Arial, sans-serif" font-size="12">38.00%</text>
<rect x="255.60" y="142.08" width="76.80" height="295.92" rx="4" fill="#45e38a" fill-opacity="0.86"/>
<text x="294.00" y="472" text-anchor="middle" fill="#cce9d8" font-family="Arial, sans-serif" font-size="13">D3</text>
<text x="294.00" y="135.08" text-anchor="middle" fill="#e7fff3" font-family="Arial, sans-serif" font-size="12">42.57%</text>
<rect x="344.40" y="157.97" width="76.80" height="280.03" rx="4" fill="#45e38a" fill-opacity="0.86"/>
<text x="382.80" y="472" text-anchor="middle" fill="#cce9d8" font-family="Arial, sans-serif" font-size="13">D4</text>
<text x="382.80" y="150.97" text-anchor="middle" fill="#e7fff3" font-family="Arial, sans-serif" font-size="12">40.29%</text>
<rect x="433.20" y="209.61" width="76.80" height="228.39" rx="4" fill="#45e38a" fill-opacity="0.86"/>
<text x="471.60" y="472" text-anchor="middle" fill="#cce9d8" font-family="Arial, sans-serif" font-size="13">D5</text>
<text x="471.60" y="202.61" text-anchor="middle" fill="#e7fff3" font-family="Arial, sans-serif" font-size="12">32.86%</text>
<rect x="522.00" y="106.33" width="76.80" height="331.67" rx="4" fill="#45e38a" fill-opacity="0.86"/>
<text x="560.40" y="472" text-anchor="middle" fill="#cce9d8" font-family="Arial, sans-serif" font-size="13">D6</text>
<text x="560.40" y="99.33" text-anchor="middle" fill="#e7fff3" font-family="Arial, sans-serif" font-size="12">47.71%</text>
<rect x="610.80" y="183.79" width="76.80" height="254.21" rx="4" fill="#45e38a" fill-opacity="0.86"/>
<text x="649.20" y="472" text-anchor="middle" fill="#cce9d8" font-family="Arial, sans-serif" font-size="13">D7</text>
<text x="649.20" y="176.79" text-anchor="middle" fill="#e7fff3" font-family="Arial, sans-serif" font-size="12">36.57%</text>
<rect x="699.60" y="227.48" width="76.80" height="210.52" rx="4" fill="#45e38a" fill-opacity="0.86"/>
<text x="738.00" y="472" text-anchor="middle" fill="#cce9d8" font-family="Arial, sans-serif" font-size="13">D8</text>
<text x="738.00" y="220.48" text-anchor="middle" fill="#e7fff3" font-family="Arial, sans-serif" font-size="12">30.29%</text>
<rect x="788.40" y="239.40" width="76.80" height="198.60" rx="4" fill="#45e38a" fill-opacity="0.86"/>
<text x="826.80" y="472" text-anchor="middle" fill="#cce9d8" font-family="Arial, sans-serif" font-size="13">D9</text>
<text x="826.80" y="232.40" text-anchor="middle" fill="#e7fff3" font-family="Arial, sans-serif" font-size="12">28.57%</text>
<rect x="877.20" y="70.00" width="76.80" height="368.00" rx="4" fill="#45e38a" fill-opacity="0.86"/>
<text x="915.60" y="472" text-anchor="middle" fill="#cce9d8" font-family="Arial, sans-serif" font-size="13">D10</text>
<text x="915.60" y="63.00" text-anchor="middle" fill="#e7fff3" font-family="Arial, sans-serif" font-size="12">52.94%</text>
</svg>
