<svg xmlns="http://www.w3.org/2000/svg" width="980" height="520" viewBox="0 0 980 520">
<rect width="100%" height="100%" fill="#07110d"/>
<text x="78" y="36" fill="#e7fff3" font-family="Arial, sans-serif" font-size="22" font-weight="700">Strict Post-Training: Decile Returns</text>
<text x="78" y="58" fill="#8fb9a2" font-family="Arial, sans-serif" font-size="13">Average realized 14D sector-neutral return after estimated trading cost</text>
<line x1="78" y1="269.79" x2="954" y2="269.79" stroke="#6fbf90" stroke-opacity="0.55" stroke-width="1"/>
<line x1="78" y1="70" x2="78" y2="438" stroke="#254235"/>
<line x1="78" y1="438" x2="954" y2="438" stroke="#254235"/>
<rect x="78.00" y="269.79" width="76.80" height="47.57" rx="4" fill="#ff647c" fill-opacity="0.86"/>
<text x="116.40" y="472" text-anchor="middle" fill="#cce9d8" font-family="Arial, sans-serif" font-size="13">D1</text>
<text x="116.40" y="335.36" text-anchor="middle" fill="#e7fff3" font-family="Arial, sans-serif" font-size="12">-1.25%</text>
<rect x="166.80" y="269.79" width="76.80" height="36.03" rx="4" fill="#ff647c" fill-opacity="0.86"/>
<text x="205.20" y="472" text-anchor="middle" fill="#cce9d8" font-family="Arial, sans-serif" font-size="13">D2</text>
<text x="205.20" y="323.82" text-anchor="middle" fill="#e7fff3" font-family="Arial, sans-serif" font-size="12">-0.95%</text>
<rect x="255.60" y="269.79" width="76.80" height="20.66" rx="4" fill="#ff647c" fill-opacity="0.86"/>
<text x="294.00" y="472" text-anchor="middle" fill="#cce9d8" font-family="Arial, sans-serif" font-size="13">D3</text>
<text x="294.00" y="308.46" text-anchor="middle" fill="#e7fff3" font-family="Arial, sans-serif" font-size="12">-0.54%</text>
<rect x="344.40" y="269.79" width="76.80" height="62.56" rx="4" fill="#ff647c" fill-opacity="0.86"/>
<text x="382.80" y="472" text-anchor="middle" fill="#cce9d8" font-family="Arial, sans-serif" font-size="13">D4</text>
<text x="382.80" y="350.36" text-anchor="middle" fill="#e7fff3" font-family="Arial, sans-serif" font-size="12">-1.64%</text>
<rect x="433.20" y="269.79" width="76.80" height="58.84" rx="4" fill="#ff647c" fill-opacity="0.86"/>
<text x="471.60" y="472" text-anchor="middle" fill="#cce9d8" font-family="Arial, sans-serif" font-size="13">D5</text>
<text x="471.60" y="346.64" text-anchor="middle" fill="#e7fff3" font-family="Arial, sans-serif" font-size="12">-1.55%</text>
<rect x="522.00" y="239.85" width="76.80" height="29.94" rx="4" fill="#45e38a" fill-opacity="0.86"/>
<text x="560.40" y="472" text-anchor="middle" fill="#cce9d8" font-family="Arial, sans-serif" font-size="13">D6</text>
<text x="560.40" y="232.85" text-anchor="middle" fill="#e7fff3" font-family="Arial, sans-serif" font-size="12">0.79%</text>
<rect x="610.80" y="269.79" width="76.80" height="73.67" rx="4" fill="#ff647c" fill-opacity="0.86"/>
<text x="649.20" y="472" text-anchor="middle" fill="#cce9d8" font-family="Arial, sans-serif" font-size="13">D7</text>
<text x="649.20" y="361.46" text-anchor="middle" fill="#e7fff3" font-family="Arial, sans-serif" font-size="12">-1.94%</text>
<rect x="699.60" y="269.79" width="76.80" height="168.21" rx="4" fill="#ff647c" fill-opacity="0.86"/>
<text x="738.00" y="472" text-anchor="middle" fill="#cce9d8" font-family="Arial, sans-serif" font-size="13">D8</text>
<text x="738.00" y="456.00" text-anchor="middle" fill="#e7fff3" font-family="Arial, sans-serif" font-size="12">-4.42%</text>
<rect x="788.40" y="269.79" width="76.80" height="124.59" rx="4" fill="#ff647c" fill-opacity="0.86"/>
<text x="826.80" y="472" text-anchor="middle" fill="#cce9d8" font-family="Arial, sans-serif" font-size="13">D9</text>
<text x="826.80" y="412.38" text-anchor="middle" fill="#e7fff3" font-family="Arial, sans-serif" font-size="12">-3.27%</text>
<rect x="877.20" y="70.00" width="76.80" height="199.79" rx="4" fill="#45e38a" fill-opacity="0.86"/>
<text x="915.60" y="472" text-anchor="middle" fill="#cce9d8" font-family="Arial, sans-serif" font-size="13">D10</text>
<text x="915.60" y="63.00" text-anchor="middle" fill="#e7fff3" font-family="Arial, sans-serif" font-size="12">5.25%</text>
</svg>
